# xmcd
#
# Track frame offsets:
#	150
#	12104
#	30459
#	49344
#	67741
#	83749
#	98364
#	112721
#	128645
#	141936
#
# Disc length: 2084 seconds
#
# Revision: 0
# Processed by: cddbd v1.5.1PL0 Copyright (c) Steve Scherf et al.
# Submitted via: dBpowerAMP V4.0
#
DISCID=6b08220a
DTITLE=Tanya Tucker - Can't Run From Yourself
DYEAR=1992
DGENRE=Country
TTITLE0=It's A Little Too Late
TTITLE1=Can't Run From Yourself
TTITLE2=Two Sparrows In A Hurricane
TTITLE3=Don't Let My Heart Be The Last To Know
TTITLE4=Tell Me About It  with Delbert McClinton
TTITLE5=I've Learned To Live
TTITLE6=What Do They Know
TTITLE7=Rainbow Rider
TTITLE8=Half The Moon
TTITLE9=Danger Ahead
EXTD=
EXTT0=
EXTT1=
EXTT2=
EXTT3=
EXTT4=
EXTT5=
EXTT6=
EXTT7=
EXTT8=
EXTT9=
PLAYORDER=
